<svg xmlns="http://www.w3.org/2000/svg" width="94" height="94" viewBox="0 0 94 94">
  <g id="deactivate-account" transform="translate(-158 -266)">
    <circle id="bg" cx="47" cy="47" r="47" transform="translate(158 266)" fill="#f2f2f2"/>
    <path id="user" d="M24.54,43.381H5.579a1.868,1.868,0,0,1-1.47-.7,1.92,1.92,0,0,1-.389-1.61A20.309,20.309,0,0,1,23.042,24.99q.243.009.487.009t.491-.01a20.078,20.078,0,0,1,11.3,3.785,1.838,1.838,0,1,0,2.145-2.985,23.8,23.8,0,0,0-6.45-3.288,12.5,12.5,0,1,0-14.968.009A23.908,23.908,0,0,0,.12,40.323a5.585,5.585,0,0,0,5.459,6.735H24.54a1.838,1.838,0,0,0,0-3.676ZM14.706,12.5a8.823,8.823,0,1,1,9.271,8.812q-.223,0-.448,0t-.445,0A8.834,8.834,0,0,1,14.706,12.5ZM46.52,43.92a1.838,1.838,0,0,1-2.6,2.6l-4.674-4.674-4.674,4.674a1.838,1.838,0,1,1-2.6-2.6l4.674-4.674-4.674-4.674a1.838,1.838,0,0,1,2.6-2.6l4.674,4.674,4.674-4.674a1.838,1.838,0,0,1,2.6,2.6l-4.674,4.674Z" transform="translate(182.164 290.165)" fill="#2b98fc"/>
  </g>
</svg>
