<svg xmlns="http://www.w3.org/2000/svg" width="12.301" height="13.243" viewBox="0 0 12.301 13.243">
  <path id="first-name" d="M5.65,6.887A3.32,3.32,0,0,0,8.829,3.443,3.32,3.32,0,0,0,5.65,0,3.32,3.32,0,0,0,2.472,3.443,3.32,3.32,0,0,0,5.65,6.887Zm2.825.765H7.26a3.575,3.575,0,0,1-3.218,0H2.825A2.95,2.95,0,0,0,0,10.712v.383a1.107,1.107,0,0,0,1.059,1.148h9.182A1.107,1.107,0,0,0,11.3,11.095v-.383A2.95,2.95,0,0,0,8.476,7.652Z" transform="translate(0.5 0.5)" fill="none" stroke="#cda052" stroke-width="1" opacity="0.43"/>
</svg>
