<svg xmlns="http://www.w3.org/2000/svg" xmlns:xlink="http://www.w3.org/1999/xlink" width="51" height="52" viewBox="0 0 51 52">
  <defs>
    <filter id="Ellipse_1100" x="0" y="0" width="51" height="52" filterUnits="userSpaceOnUse">
      <feOffset dy="1" input="SourceAlpha"/>
      <feGaussianBlur stdDeviation="2" result="blur"/>
      <feFlood flood-opacity="0.059"/>
      <feComposite operator="in" in2="blur"/>
      <feComposite in="SourceGraphic"/>
    </filter>
  </defs>
  <g id="whistlist" transform="translate(-212 -274)">
    <g transform="matrix(1, 0, 0, 1, 212, 274)" filter="url(#Ellipse_1100)">
      <ellipse id="Ellipse_1100-2" data-name="Ellipse 1100" cx="19.5" cy="20" rx="19.5" ry="20" transform="translate(6 5)" fill="#fff"/>
    </g>
    <path id="Icon_awesome-heart" data-name="Icon awesome-heart" d="M16.175,3.319A4.785,4.785,0,0,0,9.646,3.8l-.689.71L8.267,3.8a4.784,4.784,0,0,0-6.529-.476,5.024,5.024,0,0,0-.346,7.274l6.77,6.991a1.1,1.1,0,0,0,1.585,0l6.77-6.991a5.021,5.021,0,0,0-.343-7.274Z" transform="translate(228.851 288.826)" fill="#cda052"/>
  </g>
</svg>
