<svg xmlns="http://www.w3.org/2000/svg" width="1067.7" height="177.977" viewBox="0 0 1067.7 177.977">
  <g id="logo_mix" transform="translate(-107.3 -84.798)">
    <g id="_Group_" data-name="&lt;Group&gt;">
      <path id="_Compound_Path_" data-name="&lt;Compound Path&gt;" d="M236.7,189.9v40.7a1.791,1.791,0,0,1-1.2,2.1c-1.1.5-2,1.1-3,1.5l-58.6,28.2a3.6,3.6,0,0,1-3.2,0c-11.2-5-22.5-9.9-33.8-14.9a10.887,10.887,0,0,1-2.3-1.4c-8.6-6.4-17.2-13-25.8-19.4a3.393,3.393,0,0,1-1.5-3.1q.1-36.9,0-73.8a4.911,4.911,0,0,1,1.3-3.5c9-10.7,17.9-21.3,26.7-32.1a32.8,32.8,0,0,1,8.2-7.1c11.7-7.1,23.4-14.3,35-21.5a4.894,4.894,0,0,1,.5-.3c1.2-.7,1.2-.7,2.1.2q4.8,5.4,9.6,10.7,11.9,13.3,23.8,26.5l20.2,22.4c.3.3.6.7.9,1a5.147,5.147,0,0,1,1.1,3.4Zm-36.3-55.7h-.1q-.1-6.1-.3-12.2c-.1-1.4-.2-2.8-.2-4.1a2.973,2.973,0,0,0-.8-2c-1.6-1.6-3.1-3.4-4.7-5.1q-7.2-7.9-14.4-15.9c-1.2-1.3-1.1-.9-2.2-.3q-16.2,9.8-32.4,19.5a2.766,2.766,0,0,0-1.3,2q-2.5,11.6-5.2,23.2a11.6,11.6,0,0,0-.1,4.9q.1.7.2,1.3.8,7.3,1.6,14.5c.1.8.4,1.3,1.3,1.4q2.4.2,4.7.4l9.2,1q6.9.7,13.7,1.4l9.2,1c3.2.3,6.5.6,9.8,1a2.424,2.424,0,0,0,2.7-1.4q4.3-6.5,8.8-13a4.236,4.236,0,0,0,.9-3.1c-.2-4.8-.3-9.7-.4-14.5Zm1.6,85.5h-.1c.1-6.1.2-12.2.4-18.3a9.237,9.237,0,0,0-.8-4q-5.5-12.6-10.9-25.2c-1-2.3-1-2.3-3.6-2.6-3.2-.3-6.5-.6-9.8-.9l-16.8-1.8c-5.8-.6-11.7-1.2-17.5-1.8-1.3-.2-1.4-.1-1,1.2q1.2,4.5,2.5,8.9l15.4,54.4c.4,1.1.7,2,2.1,2.5,11,3.5,22,7.2,33,10.9a2.99,2.99,0,0,0,2.6-.2q1.5-1,3-1.8a1.749,1.749,0,0,0,1.1-1.8c.1-6.5.3-13,.4-19.5Zm4.3-.5h-.1v18.9c0,.4.2.7.7.5a6.538,6.538,0,0,0,.7-.4q10.2-4.8,20.4-9.7c1.3-.6,1.4-.5.9-2.2q-3.5-12-7-24.1-1.5-5-3-9.9c-.5-1.8-.5-1.9-1.9-.8-3.1,2.4-6.2,4.9-9.4,7.2a3.026,3.026,0,0,0-1.4,2.8c.1,5.9.1,11.8.1,17.7Zm-91.7-33.3v29.9a11.044,11.044,0,0,0,.3,1.6,6.014,6.014,0,0,0,.9-1.3c5.3-9.4,10.5-18.9,15.8-28.3a2.4,2.4,0,0,0,0-2.8c-5.2-9.6-10.4-19.3-15.6-28.9q-.4-.7-.8-1.3c0-.1-.3-.2-.3-.2a.52.52,0,0,0-.2.4,12.888,12.888,0,0,0-.1,1.6Zm114.5,30.7a.768.768,0,0,0,.3-.1V167.1a2.342,2.342,0,0,0-1.6-2.5l-20.1-9c-.5-.2-1.1-.9-1.7-.3-.2.1.2,1,.4,1.5l13,28.4q.6,1.4,1.1,2.9,3.9,13.1,7.8,26.1a22.5,22.5,0,0,0,.8,2.4Zm.3-60.7v-4.1a3.337,3.337,0,0,0-.9-2.3q-12.1-13.4-24.2-26.9-.5-.6-1-1.1a.337.337,0,1,0-.6.3c0,1.7,0,3.5.1,5.3.3,7,.7,14,1,21a2.172,2.172,0,0,0,1.5,2.3c6.4,2.9,12.8,5.8,19.1,8.7q2.1,1,4.1,1.9c.6.3.9.1.9-.5v-4.6Zm-70.3,79c-.4.2-.7.3-1.1.5l-12.8,6.4a1.374,1.374,0,0,0-.8.5c-.1.1-.1.5,0,.5a5.582,5.582,0,0,0,.8.5q13,5.6,25.9,11.3a2.36,2.36,0,0,0,2.3-.1c5.4-2.6,10.8-5.1,16.2-7.7a10.322,10.322,0,0,0,1.5-.7c.2-.1.2-.3.3-.4-.1-.1-.2-.2-.3-.2q-.4-.2-.9-.4l-30-9.8q-.5-.2-1.1-.4Zm-7.4-20.1a1.163,1.163,0,0,1,.3-.2c-.1-.2-.1-.5-.2-.7q-6.8-24.3-13.6-48.5a2.873,2.873,0,0,0-1.7-2c-3.4-1.8-6.8-3.7-10.2-5.5q-2.7-1.4-5.4-2.9c-.2-.1-.5-.1-.7-.2a2.483,2.483,0,0,0,.1.9l3.4,6c4.7,8.7,9.7,17.4,14.3,26.2,4.4,8.3,8.5,16.8,12.8,25.2Q151.2,213.9,151.7,214.8ZM133,202.3v-7a9.888,9.888,0,0,0-.1-1.4c0-.1-.1-.2-.2-.4a1.38,1.38,0,0,0-.4.3,2.506,2.506,0,0,0-.4.7q-7.4,13.1-14.7,26.2c-.7,1.3-.8,1.2.4,2.2q4.6,3.8,9.2,7.7a.288.288,0,0,1,.2.1c.5.4.9.6,1.1-.3a4.508,4.508,0,0,1,.3-1.1c.9-3.9,1.7-7.8,2.8-11.6,1.5-5.2,2.5-10.3,1.8-15.4Zm69.1-47.4a6.528,6.528,0,0,0-.6.7q-3.7,5.5-7.4,10.9c-.1.2-.4.5-.4.7a1.929,1.929,0,0,0,.3,1c.2.3.6.4.9.7l18,12,1,.6c.1.1.3.1.5.2,0-.3.1-.5,0-.7,0-.3-.2-.5-.3-.8q-5.6-12-11.1-24l-.6-1q0-.15-.3-.3Zm-64.4,62.7c.5,4.4,1.1,9.2,1.7,13.9.3,2.5.7,5.1,1,7.6.1.8.4.9,1,.5q3.7-1.8,7.4-3.7c2-.9,4-1.9,6-2.9.9-.5.9-.6.3-1.3a3.277,3.277,0,0,1-.5-.4q-7.8-7.5-15.6-14.9a17.409,17.409,0,0,0-1.4-1.2q.1,1,.1,1.9v.5Zm58.2-43.7c-.1.2-.3.4-.3.6a6.944,6.944,0,0,0,.5,1.3l7.4,16.4c.5,1.2,1.2,2.4,1.7,3.6,1.1-.8,2.3-1.5,3.4-2.3,2.3-1.8,4.6-3.6,7-5.4.4-.4.6-.7,0-1.1a4.892,4.892,0,0,1-.5-.3q-9.1-6.1-18.3-12.2a3.49,3.49,0,0,0-.9-.6Zm-55.3-53.6c-.1-.2-.1-.4-.2-.5a1.007,1.007,0,0,1-.3.1,7.51,7.51,0,0,1-.7.8q-7.7,9.2-15.4,18.5-2.7,3.3-5.4,6.5c-.2.2-.2.4-.3.5.2,0,.4.1.7.1.1,0,.2-.1.3-.2,5-1.9,9.9-3.9,14.8-5.7a2.463,2.463,0,0,0,1.6-2q2.3-8.6,4.6-17.1.2-.6.3-1Zm-3.9,37.6h0l-1-10q-.2-1.5-.3-3.1c-.1-.6-.4-.9-1.1-.7a5.527,5.527,0,0,1-1.1.5l-11.8,4.6c-.6.2-1.1.5-1.7.7-.5.2-.3.4,0,.6a5.254,5.254,0,0,0,.8.5q7.5,4,14.9,7.9a6.538,6.538,0,0,1,.7.4q.6.2.6-.4v-1Zm14.6,65.2.2-.2a13.7,13.7,0,0,0-.7-1.4l-6.2-11.8q-3.4-6.6-6.9-13.1c-.2-.3-.3-.7-.5-1-.2-.2-.4-.3-.5-.5a1.421,1.421,0,0,0-.2.6l.2,12.6a2.43,2.43,0,0,0,.9,1.8q4.1,3.9,8.1,7.8l5.6,5.2Zm-16.8-2.3c-.3.6-.5.8-.5,1.1q-1.5,5.7-2.9,11.5a1.426,1.426,0,0,0,.6,1.5c.9.6,1.7,1.3,2.5,1.9.8.5,1.5.9,2.3,1.4-.1-.8-.1-1.7-.2-2.5-.6-4.8-1.2-9.7-1.8-14.9Z" fill="#fff" fill-rule="evenodd"/>
    </g>
    <g id="_Group_2" data-name="&lt;Group&gt;">
      <path id="_Compound_Path_2" data-name="&lt;Compound Path&gt;" d="M288.5,230.5H274.1V145h22.5l25.8,53.7L348.2,145h22.4v85.5H356.2V163.7L326.3,223h-8.1l-29.7-59.3Z" fill="#fff"/>
      <path id="_Compound_Path_3" data-name="&lt;Compound Path&gt;" d="M394.3,145h14.5v85.5H394.3Z" fill="#fff"/>
      <path id="_Compound_Path_4" data-name="&lt;Compound Path&gt;" d="M483.2,230.5l-21.1-32.2h-.6l-21,32.2h-18l29.3-43.9L424.6,145h17.8l19.1,28.8h.6L481.2,145h17.9l-27.3,41.6,29.3,43.9Z" fill="#fff"/>
      <path id="_Compound_Path_5" data-name="&lt;Compound Path&gt;" d="M583.4,218.7q-13,12.6-32.1,12.6t-32-12.6q-13-12.7-13-31.6t13-31.6q12.9-12.6,32-12.6t32.1,12.6q12.9,12.7,12.9,31.6T583.4,218.7Zm-10.6-53.6a30.181,30.181,0,0,0-43,0,32.166,32.166,0,0,0,0,44,30.181,30.181,0,0,0,43,0,32.166,32.166,0,0,0,0-44Z" fill="#fff" fill-rule="evenodd"/>
      <path id="_Compound_Path_6" data-name="&lt;Compound Path&gt;" d="M614.6,230.5V145H629v71.8h39v13.7Z" fill="#fff"/>
      <path id="_Compound_Path_7" data-name="&lt;Compound Path&gt;" d="M752.9,218.7q-12.9,12.6-32,12.6t-32.1-12.6q-13-12.7-12.9-31.6-.1-18.9,12.9-31.6,13-12.6,32.1-12.6t32,12.6q13,12.7,13,31.6T752.9,218.7Zm-10.6-53.6a30.061,30.061,0,0,0-42.9,0,32.166,32.166,0,0,0,0,44,30.061,30.061,0,0,0,42.9,0,31.9,31.9,0,0,0,0-44Z" fill="#fff" fill-rule="evenodd"/>
      <path id="_Compound_Path_8" data-name="&lt;Compound Path&gt;" d="M843.3,188.9h14.5v29.2q-12.1,13.3-34.7,13.3-18.9,0-31.7-12.4-12.8-12.5-12.8-31.6t13-31.8a43.635,43.635,0,0,1,31.5-12.7q18.5,0,30.8,10.7l-7.8,11a31.482,31.482,0,0,0-10-5.9,39.855,39.855,0,0,0-11.9-1.6q-12.9,0-21.7,8.3-8.8,8.4-8.8,22.1,0,13.6,8.5,21.9a29.047,29.047,0,0,0,20.8,8.2q12.1,0,20.3-5.2Z" fill="#fff"/>
      <path id="_Compound_Path_9" data-name="&lt;Compound Path&gt;" d="M909,230.5H894.4V196.7L862.5,145h15.8l23.4,38.9L925.1,145h15.7L909,196.7Z" fill="#fff"/>
      <path id="_Compound_Path_10" data-name="&lt;Compound Path&gt;" d="M985.2,145h14.5v85.5H985.2Z" fill="#fff"/>
      <path id="_Compound_Path_11" data-name="&lt;Compound Path&gt;" d="M1062.4,217.4a30.5,30.5,0,0,0,12.9-2.5,42.921,42.921,0,0,0,11.2-8l9.3,9.5q-13.5,15-32.9,15T1030.7,219q-12.8-12.5-12.8-31.6t13-31.8q13.1-12.7,33-12.7a43.118,43.118,0,0,1,33.2,14.7l-9.2,10a38.919,38.919,0,0,0-11.6-8.2,32.521,32.521,0,0,0-12.8-2.3q-12.9,0-21.7,8.3-8.8,8.4-8.8,21.5,0,13,8.7,21.7A28.327,28.327,0,0,0,1062.4,217.4Z" fill="#fff"/>
      <path id="_Compound_Path_12" data-name="&lt;Compound Path&gt;" d="M1173.5,145v13.5h-45.6v22.7h41V194h-41v22.9H1175v13.6h-61.5V145Z" fill="#fff"/>
    </g>
  </g>
</svg>
