<svg xmlns="http://www.w3.org/2000/svg" width="223" height="223" viewBox="0 0 223 223">
  <g id="order_main" transform="translate(-628 -304)">
    <g id="Ellipse_1" data-name="Ellipse 1" transform="translate(628 304)" fill="#fff" stroke="#4a91e2" stroke-width="4">
      <circle cx="111.5" cy="111.5" r="111.5" stroke="none"/>
      <circle cx="111.5" cy="111.5" r="109.5" fill="none"/>
    </g>
    <g id="orders" transform="translate(693 366)">
      <path id="Path_1" data-name="Path 1" d="M20.3,69.82a2.619,2.619,0,0,1,0-5.237H37.561a2.619,2.619,0,0,1,0,5.237ZM49.08,62.229a1.446,1.446,0,0,1,0-2.892h3.88a6.662,6.662,0,0,1,3.478.916,5.489,5.489,0,0,1,2.346,3.334.14.14,0,0,0,.04.112l.37,1.462H91.235a1.433,1.433,0,0,1,1.43,1.43,2.2,2.2,0,0,1-.072.442L88.857,82.086a1.41,1.41,0,0,1-1.39,1.1H64.028c.514,1.9,1.028,2.932,1.719,3.406.843.546,2.305.586,4.763.546H87.1a1.43,1.43,0,0,1,0,2.86H70.535c-3.044.032-4.908-.04-6.41-1.028-1.542-1.028-2.346-2.779-3.149-5.968h0l-4.908-18.58c0-.04,0-.04-.032-.072a2.532,2.532,0,0,0-1.1-1.647,3.731,3.731,0,0,0-2.016-.474H49.08ZM82.809,91.677A3.518,3.518,0,1,1,79.291,95.2a3.517,3.517,0,0,1,3.518-3.518Zm-15.423,0A3.518,3.518,0,1,1,63.868,95.2a3.517,3.517,0,0,1,3.518-3.518ZM20.3,26.974a2.619,2.619,0,0,1,0-5.237H60.88a2.619,2.619,0,1,1,0,5.237ZM6.081,0H74.865a6.061,6.061,0,0,1,6.073,6.073v48.18H75.716V6.1a.85.85,0,0,0-.859-.859H6.081a.891.891,0,0,0-.61.249.836.836,0,0,0-.241.61V85.355a.891.891,0,0,0,.249.61.829.829,0,0,0,.61.249h44.22a29.008,29.008,0,0,0,1.791,5.2H6.081a6.071,6.071,0,0,1-4.3-1.775A6.012,6.012,0,0,1,0,85.347V6.081A6.061,6.061,0,0,1,6.081,0ZM20.3,48.4a2.619,2.619,0,0,1,0-5.237H60.88a2.619,2.619,0,1,1,0,5.237Z" fill="#4a91e2"/>
    </g>
  </g>
</svg>
