<svg id="suspended_img" xmlns="http://www.w3.org/2000/svg" width="32" height="32" viewBox="0 0 32 32">
  <path id="Path_33903" data-name="Path 33903" d="M26,32H6a6,6,0,0,1-6-6V6A6,6,0,0,1,6,0H26a6,6,0,0,1,6,6V26A6,6,0,0,1,26,32Z" fill="#2e2e2e"/>
  <path id="Path_33904" data-name="Path 33904" d="M13.333,8a3.671,3.671,0,0,0-3.667,3.667V13.5a1.168,1.168,0,0,0,1.167,1.167h2.5A2.33,2.33,0,0,1,11,12.334,2.241,2.241,0,0,0,13.333,10a2.241,2.241,0,0,0,2.333,2.333,2.33,2.33,0,0,1-2.333,2.333h2.5A1.168,1.168,0,0,0,17,13.5V11.667A3.671,3.671,0,0,0,13.333,8Z" fill="#fff"/>
  <path id="Path_33905" data-name="Path 33905" d="M15.8,16H10.5A2.5,2.5,0,0,0,8,18.5v2.333a.5.5,0,0,0,.5.5h6.1A5.3,5.3,0,0,1,15.8,16Z" fill="#fff"/>
  <path id="Path_33906" data-name="Path 33906" d="M19.667,15.333A4.333,4.333,0,1,0,24,19.667,4.338,4.338,0,0,0,19.667,15.333Zm0,1a3.307,3.307,0,0,1,1.969.658l-4.644,4.644a3.319,3.319,0,0,1,2.675-5.3Zm0,6.667a3.307,3.307,0,0,1-1.969-.658L22.342,17.7A3.3,3.3,0,0,1,23,19.667,3.337,3.337,0,0,1,19.667,23Z" fill="#fff"/>
</svg>
